<?xml version="1.0" encoding="UTF-8" standalone="no"?>
<svg
   xmlns:svg="http://www.w3.org/2000/svg"
   xmlns="http://www.w3.org/2000/svg"
   xmlns:sodipodi="http://sodipodi.sourceforge.net/DTD/sodipodi-0.dtd"
   xmlns:inkscape="http://www.inkscape.org/namespaces/inkscape"
   sodipodi:docname="batfleck.svg"
   inkscape:version="1.1-dev (48d18c81, 2020-07-08)"
   id="svg1759"
   version="1.1"
   viewBox="0 0 210 297"
   height="297mm"
   width="210mm">
  <defs
     id="defs1755" />
  <sodipodi:namedview
     inkscape:window-maximized="0"
     inkscape:window-y="23"
     inkscape:window-x="0"
     inkscape:window-height="929"
     inkscape:window-width="1252"
     showgrid="false"
     inkscape:current-layer="layer1"
     inkscape:document-units="mm"
     inkscape:cy="561.42857"
     inkscape:cx="400"
     inkscape:zoom="0.35"
     inkscape:pageshadow="2"
     inkscape:pageopacity="0.0"
     borderopacity="1.0"
     bordercolor="#666666"
     pagecolor="#ffffff"
     id="base" />
  <g
     id="layer1"
     inkscape:groupmode="layer"
     inkscape:label="Layer 1">
    <path
       id="path1743"
       style="fill:#333333;fill-opacity:1;stroke:none;stroke-width:0.240882px;stroke-linecap:butt;stroke-linejoin:miter;stroke-opacity:1"
       d="M 37.044688,90.828911 C 15.147641,104.25001 12.69495,140.58792 7.4645943,161.30071 l 2.9244587,6.45067 6.472781,-4.19522 c 7.544973,-4.8903 38.615816,-5.53109 42.259358,0.0814 l 3.012454,5.40198 4.73156,-3.55489 c 26.603796,2.93034 40.480024,35.48406 40.480024,35.48406 0,0 13.87672,-32.55372 40.48051,-35.48406 l 4.73109,3.55489 3.01245,-5.40198 c 3.64354,-5.61248 34.71484,-4.97169 42.25984,-0.0814 l 6.47278,4.19522 2.92398,-6.45067 c -5.23036,-20.71279 -7.68305,-57.0507 -29.5801,-70.471799 -2.79156,3.626768 -1.48569,5.57584 -5.63487,6.651559 -16.09962,4.17401 -32.89358,11.12546 -50.38208,11.48003 V 98.277923 l -5.63817,5.638157 h -8.64543 -8.644958 L 93.061645,98.277923 V 108.9605 C 75.573136,108.60593 58.779187,101.65448 42.679558,97.48047 38.530379,96.404751 39.836252,94.455679 37.044688,90.828911 Z" />
  </g>
</svg>
