<?xml version="1.0" encoding="UTF-8"?>
<svg id="katman_1" data-name="katman 1" xmlns="http://www.w3.org/2000/svg" version="1.1" viewBox="0 0 841.89 595.28">
  <defs>
    <style>
      .cls-1 {
        fill: #e2b714;
        stroke-width: 0px;
      }
    </style>
  </defs>
  <path class="cls-1" d="M651.58,366.59h0c12.73,0,23.06,10.33,23.06,23.06h0c0,12.73-10.33,23.06-23.06,23.06h0c-12.73,0-23.06-10.33-23.06-23.06h0c0-12.73,10.33-23.06,23.06-23.06Z"/>
  <path class="cls-1" d="M328.75,366.59h138.36c12.73,0,23.06,10.33,23.06,23.06h0c0,12.73-10.33,23.06-23.06,23.06h-138.36c-12.73,0-23.06-10.33-23.06-23.06h0c0-12.73,10.33-23.06,23.06-23.06Z"/>
  <path class="cls-1" d="M282.63,228.23h0c12.73,0,23.06,10.33,23.06,23.06v46.12c0,12.73-10.33,23.06-23.06,23.06h0c-12.73,0-23.06-10.33-23.06-23.06v-46.12c0-12.73,10.33-23.06,23.06-23.06Z"/>
  <path class="cls-1" d="M167.35,250.1c.63-37.64,31.37-67.99,69.16-67.99h0c17.71,0,33.87,6.67,46.12,17.63,12.24-10.96,28.41-17.63,46.12-17.63h0c37.78,0,68.53,30.36,69.16,67.99.02.39.02.79.02,1.19h0v46.12c0,12.73-10.33,23.06-23.06,23.06h0c-12.73,0-23.06-10.33-23.06-23.06v-46.12h0c0-12.73-10.33-23.06-23.06-23.06s-23.06,10.33-23.06,23.06h0v46.12c0,12.73-10.33,23.06-23.06,23.06h0c-12.73,0-23.06-10.33-23.06-23.06v-46.12h0c0-12.73-10.33-23.06-23.06-23.06s-23.06,10.33-23.06,23.06h0v46.12c0,12.73-10.33,23.06-23.06,23.06h0c-12.73,0-23.06-10.33-23.06-23.06v-46.12h0c0-.4,0-.79.02-1.19Z"/>
  <path class="cls-1" d="M582.4,320.47v69.18c0,12.73-10.33,23.06-23.06,23.06h0c-12.73,0-23.06-10.33-23.06-23.06v-69.18h-66.46c-14.23,0-25.78-10.33-25.78-23.06h0c0-12.73,11.55-23.06,25.78-23.06h179.03c14.23,0,25.78,10.33,25.78,23.06h0c0,12.73-11.55,23.06-25.78,23.06h-66.46Z"/>
  <path class="cls-1" d="M559.34,182.11h92.24c12.73,0,23.06,10.33,23.06,23.06h0c0,12.73-10.33,23.06-23.06,23.06h-92.24c-12.73,0-23.06-10.33-23.06-23.06h0c0-12.73,10.33-23.06,23.06-23.06Z"/>
  <path class="cls-1" d="M190.39,366.59h46.12c12.73,0,23.06,10.33,23.06,23.06h0c0,12.73-10.33,23.06-23.06,23.06h-46.12c-12.73,0-23.06-10.33-23.06-23.06h0c0-12.73,10.33-23.06,23.06-23.06Z"/>
  <path class="cls-1" d="M455.58,182.11h11.53c12.73,0,23.06,10.33,23.06,23.06h0c0,12.73-10.33,23.06-23.06,23.06h-11.53c-12.73,0-23.06-10.33-23.06-23.06h0c0-12.73,10.33-23.06,23.06-23.06Z"/>
  <path class="cls-1" d="M121.21,366.59h-46.12v-161.42c0-63.63,51.66-115.3,115.3-115.3h461.19c63.63,0,115.3,51.66,115.3,115.3v184.47c0,63.63-51.66,115.3-115.3,115.3H190.39c-63.63,0-115.3-51.66-115.3-115.3v-46.12h46.12v46.12c0,38.18,31,69.18,69.18,69.18h461.19c38.18,0,69.18-31,69.18-69.18v-184.47c0-38.18-31-69.18-69.18-69.18H190.39c-38.18,0-69.18,31-69.18,69.18v161.42Z"/>
</svg>