<svg xmlns="http://www.w3.org/2000/svg" xmlns:xlink="http://www.w3.org/1999/xlink" viewBox="0,0,256,256" width="50px" height="50px" fill-rule="nonzero"><g transform="translate(33.28,33.28) scale(0.74,0.74)"><g fill="#000000" fill-rule="nonzero" stroke="none" stroke-width="1" stroke-linecap="butt" stroke-linejoin="miter" stroke-miterlimit="10" stroke-dasharray="" stroke-dashoffset="0" font-family="none" font-weight="none" font-size="none" text-anchor="none" style="mix-blend-mode: normal"><g transform="scale(5.12,5.12)"><path d="M6,5c-2.20703,0 -4,1.79297 -4,4v32c0,2.20703 1.79297,4 4,4h38c2.20703,0 4,-1.79297 4,-4v-32c0,-2.20703 -1.79297,-4 -4,-4zM7,9h36c0.55469,0 1,0.44922 1,1v30c0,0.55469 -0.44531,1 -1,1h-36c-0.55078,0 -1,-0.44531 -1,-1v-30c0,-0.55078 0.44922,-1 1,-1zM8,11v28h21v-2h9v2h4v-28zM25,18c1.65625,0 3,1.34375 3,3c0,1.65625 -1.34375,3 -3,3c-1.65625,0 -3,-1.34375 -3,-3c0,-1.65625 1.34375,-3 3,-3zM17,22c1.10547,0 2,0.89453 2,2c0,1.10547 -0.89453,2 -2,2c-1.10547,0 -2,-0.89453 -2,-2c0,-1.10547 0.89453,-2 2,-2zM33,22c1.10547,0 2,0.89453 2,2c0,1.10547 -0.89453,2 -2,2c-1.10547,0 -2,-0.89453 -2,-2c0,-1.10547 0.89453,-2 2,-2zM25,27c2.125,0 3.94141,0.89063 5,1.5625v3.4375h-10v-3.4375c1.05859,-0.67187 2.875,-1.5625 5,-1.5625zM17,28.65625c0.34766,0 0.67969,0.0625 1,0.125v3.21875h-5v-1.8125c0,0 1.74219,-1.53125 4,-1.53125zM33,28.65625c2.25781,0 4,1.53125 4,1.53125v1.8125h-5v-3.21875c0.32031,-0.0625 0.65234,-0.125 1,-0.125z"></path></g></g><g fill="#ffffff" fill-rule="nonzero" stroke="none" stroke-width="1" stroke-linecap="butt" stroke-linejoin="miter" stroke-miterlimit="10" stroke-dasharray="" stroke-dashoffset="0" font-family="none" font-weight="none" font-size="none" text-anchor="none" style="mix-blend-mode: normal"><g><path d="M88.532,263.884h-5.26v10.26h-6v-29.12h11.36c2.18667,0 4.11,0.4 5.77,1.2c1.66,0.8 2.93667,1.93667 3.83,3.41c0.89333,1.47333 1.34,3.15 1.34,5.03v0c0,2.85333 -0.97667,5.10333 -2.93,6.75c-1.95333,1.64667 -4.65667,2.47 -8.11,2.47zM83.272,249.884v9.14h5.36c1.58667,0 2.79667,-0.37333 3.63,-1.12c0.83333,-0.74667 1.25,-1.81333 1.25,-3.2v0c0,-1.42667 -0.42,-2.58 -1.26,-3.46c-0.84,-0.88 -2,-1.33333 -3.48,-1.36v0zM119.932,274.144l-5.46,-10.66h-4.78v10.66h-6v-29.12h10.82c3.44,0 6.09333,0.76667 7.96,2.3c1.86667,1.53333 2.8,3.7 2.8,6.5v0c0,1.98667 -0.43,3.64333 -1.29,4.97c-0.86,1.32667 -2.16333,2.38333 -3.91,3.17v0l6.3,11.9v0.28zM109.692,249.884v8.74h4.84c1.50667,0 2.67333,-0.38333 3.5,-1.15c0.82667,-0.76667 1.24,-1.82333 1.24,-3.17v0c0,-1.37333 -0.39,-2.45333 -1.17,-3.24c-0.78,-0.78667 -1.97667,-1.18 -3.59,-1.18v0zM153.752,258.944v1.3c0,2.86667 -0.50667,5.38 -1.52,7.54c-1.01333,2.16 -2.46333,3.82667 -4.35,5c-1.88667,1.17333 -4.05,1.76 -6.49,1.76v0c-2.41333,0 -4.56667,-0.58 -6.46,-1.74c-1.89333,-1.16 -3.36,-2.81667 -4.4,-4.97c-1.04,-2.15333 -1.56667,-4.63 -1.58,-7.43v0v-1.44c0,-2.86667 0.51667,-5.39 1.55,-7.57c1.03333,-2.18 2.49333,-3.85333 4.38,-5.02c1.88667,-1.16667 4.04333,-1.75 6.47,-1.75c2.42667,0 4.58333,0.58333 6.47,1.75c1.88667,1.16667 3.34667,2.84 4.38,5.02c1.03333,2.18 1.55,4.69667 1.55,7.55zM147.672,260.344v-1.42c0,-3.05333 -0.54667,-5.37333 -1.64,-6.96c-1.09333,-1.58667 -2.65333,-2.38 -4.68,-2.38v0c-2.01333,0 -3.56667,0.78333 -4.66,2.35c-1.09333,1.56667 -1.64667,3.86333 -1.66,6.89v0v1.42c0,2.97333 0.54667,5.28 1.64,6.92c1.09333,1.64 2.66667,2.46 4.72,2.46v0c2.01333,0 3.56,-0.79 4.64,-2.37c1.08,-1.58 1.62667,-3.88333 1.64,-6.91zM169.432,274.144h-11.32v-29.12h10.2c3.53333,0 6.21333,0.67667 8.04,2.03c1.82667,1.35333 2.74,3.33667 2.74,5.95v0c0,1.42667 -0.36667,2.68333 -1.1,3.77c-0.73333,1.08667 -1.75333,1.88333 -3.06,2.39v0c1.49333,0.37333 2.67,1.12667 3.53,2.26c0.86,1.13333 1.29,2.52 1.29,4.16v0c0,2.8 -0.89333,4.92 -2.68,6.36c-1.78667,1.44 -4.33333,2.17333 -7.64,2.2zM169.612,261.464h-5.5v7.86h5.14c1.41333,0 2.51667,-0.33667 3.31,-1.01c0.79333,-0.67333 1.19,-1.60333 1.19,-2.79v0c0,-2.66667 -1.38,-4.02 -4.14,-4.06zM164.112,249.884v7.34h4.44c3.02667,-0.05333 4.54,-1.26 4.54,-3.62v0c0,-1.32 -0.38333,-2.27 -1.15,-2.85c-0.76667,-0.58 -1.97667,-0.87 -3.63,-0.87v0z"></path></g></g></g></svg>