<svg xmlns="http://www.w3.org/2000/svg" xmlns:xlink="http://www.w3.org/1999/xlink" viewBox="0,0,256,256" width="48px" height="48px" fill-rule="nonzero"><g transform=""><g fill="none" fill-rule="nonzero" stroke="none" stroke-width="1" stroke-linecap="butt" stroke-linejoin="miter" stroke-miterlimit="10" stroke-dasharray="" stroke-dashoffset="0" font-family="none" font-weight="none" font-size="none" text-anchor="none" style="mix-blend-mode: normal"><g transform="translate(0.08818,-21.74994) scale(5.33333,5.33333)"><path d="M12.188,42.316l-6.825,-0.3c-0.041,-0.001 -0.082,-0.004 -0.123,-0.007c-0.535,-0.045 -1.083,-0.311 -1.318,-0.793c-0.148,-0.302 -0.159,-0.65 -0.167,-0.986c-0.249,-10.078 -0.498,-20.155 -0.747,-30.233c-0.029,-1.179 -0.017,-2.48 0.759,-3.369c0.933,-1.068 7.918,-1.43 9.019,-1.323c1.03,0.101 6.442,0.041 7.476,0c8.111,-0.319 22.972,0.691 22.972,0.691c0.725,0.036 1.318,0.649 1.562,1.333c0.244,0.684 0.212,1.431 0.179,2.157c-0.434,9.558 -0.452,19.136 -0.053,28.696c0.043,1.037 0.091,2.082 -0.058,3.11c-0.047,0.325 -0.125,0.669 -0.361,0.898c-0.275,0.267 -0.691,0.309 -1.073,0.337l-3.682,0.353c-3.44,0.096 -6.434,-0.291 -9.874,-0.195c-2.537,-0.053 -6.003,0.037 -8.544,0z" fill="#febf10"></path><path d="M7.446,38.413c0,0 7.679,-0.023 8.544,0c5.372,0.145 9.812,0.546 15.184,0.691c1.468,0.04 2.937,0.079 4.406,0.043c1.742,-0.043 4.319,-0.48 6.043,-0.735c0,0 -0.119,-5.208 0,-7.476c0.362,-6.893 -0.075,-21.196 -0.075,-21.196c-8.711,-0.29 -17.91,-0.268 -26.625,-0.164c-2.81,0.033 -5.737,-0.147 -8.544,0c-0.001,0.001 0.917,19.321 1.067,28.837z" fill="#6eb37d"></path><path d="M37.361,37.004c-0.053,0.609 -0.043,1.207 -0.096,1.826v0.192c-0.609,0.075 -1.185,0.117 -1.687,0.128c-1.463,0.032 -2.937,-0.011 -4.4,-0.043c-1.292,-0.032 -2.521,-0.085 -3.727,-0.139v-0.171c0.15,-0.694 0.086,-1.41 0.096,-2.115c0,-0.214 0.011,-0.459 0.149,-0.619c0.118,-0.16 0.32,-0.203 0.513,-0.203c0.876,-0.011 1.752,0.107 2.617,0.15c0.908,0.053 1.773,0.043 2.713,0.021c1.047,-0.011 2.104,-0.107 3.129,-0.278c0.192,-0.043 0.395,0.075 0.513,0.235c0.201,0.279 0.212,0.663 0.18,1.016z" fill="#d6e5e5"></path><path d="M23.424,16.788c-0.575,0.144 -1.115,0.443 -1.535,0.889c-0.481,0.512 -0.867,1.12 -1.022,1.792c-0.155,0.672 -0.061,1.41 0.339,1.981c0.218,0.312 0.518,0.565 0.841,0.779c0.364,0.241 0.763,0.439 1.191,0.548c1.299,0.33 2.78,-0.264 3.487,-1.356c0.707,-1.092 0.618,-2.588 -0.171,-3.627c-0.74,-0.974 -2.002,-1.288 -3.13,-1.006z" fill="#d6e5e5"></path><path d="M18.675,27.525c-1.718,-0.812 -3.039,-0.836 -3.895,-0.731c-0.384,0.047 -0.913,0.197 -1.267,0.354c-0.319,0.141 -0.598,0.357 -0.863,0.583c-0.226,0.193 -0.447,0.399 -0.601,0.653c-0.161,0.267 -0.241,0.575 -0.302,0.881c-0.102,0.509 -0.019,1.154 -0.03,1.673c2.102,-0.001 5.173,-0.084 6.408,0l1.852,-1.352z" fill="#8ec499"></path><path d="M29.874,30.937c1.068,0 1.955,0.148 3.346,0.153c0.327,0.001 1.351,-0.082 1.678,-0.095c0.436,-0.018 0.949,-0.041 1.385,-0.058c0,0 0.027,-0.689 0.051,-0.995c0.037,-0.477 0.067,-0.987 -0.169,-1.403c-0.144,-0.253 -0.373,-0.445 -0.601,-0.628c-0.488,-0.391 -1,-0.772 -1.592,-0.972c-0.289,-0.098 -0.592,-0.151 -0.894,-0.197c-0.69,-0.105 -1.394,-0.174 -2.085,-0.073c-0.691,0.101 -1.373,0.387 -1.845,0.902l-1.145,2.234z" fill="#8ec499"></path><path d="M30.724,24.22c-0.34,-0.187 -0.625,-0.459 -0.812,-0.83c-0.2,-0.396 -0.268,-0.862 -0.163,-1.293c0.083,-0.343 0.268,-0.651 0.469,-0.94c0.136,-0.196 0.284,-0.389 0.472,-0.536c0.33,-0.258 0.739,-0.338 1.145,-0.387c0.464,-0.056 0.833,0.139 1.216,0.384c0.309,0.197 0.631,0.409 0.801,0.734c0.345,0.658 0.058,1.816 -0.295,2.424c-0.376,0.648 -1.134,0.845 -1.838,0.755c-0.356,-0.047 -0.697,-0.147 -0.995,-0.311z" fill="#8ec499"></path><path d="M14.452,20.769c-0.506,0.45 -0.686,1.157 -0.664,1.838c0.009,0.265 0.05,0.534 0.172,0.769c0.167,0.321 0.466,0.548 0.756,0.763c0.289,0.215 0.593,0.436 0.947,0.494c0.269,0.044 0.544,-0.011 0.807,-0.084c0.498,-0.137 1.009,-0.362 1.289,-0.798c0.814,-1.268 0.115,-2.79 -1.151,-3.375c-0.633,-0.292 -1.402,-0.128 -1.965,0.245c-0.067,0.046 -0.131,0.095 -0.191,0.148z" fill="#8ec499"></path><path d="M18.123,28.9c0.008,-0.179 0.012,-0.361 0.069,-0.53c0.043,-0.128 0.115,-0.244 0.192,-0.355c0.651,-0.946 1.334,-1.457 2.412,-1.834c1.078,-0.378 2.597,-0.501 3.738,-0.505c0.52,-0.001 1.058,0.143 1.573,0.218c1.35,0.198 1.698,0.471 2.741,1.358c0.355,0.302 0.693,0.656 0.833,1.103c0.09,0.287 0.092,0.593 0.093,0.893c0.003,0.734 0.101,1.69 0.101,1.69c0,0 -4.82,0.13 -6.237,0c-2.403,-0.22 -3.56,0.153 -5.512,0c0,-0.001 -0.034,-1.333 -0.003,-2.038z" fill="#d6e5e5"></path><path d="M12.382,41.516c-1.345,-0.059 -2.691,-0.118 -4.036,-0.178c-0.738,-0.032 -1.476,-0.065 -2.214,-0.097c-0.15,-0.007 -0.302,-0.007 -0.451,-0.02c-0.932,-0.083 -1.078,-0.664 -1.101,-1.507c-0.197,-7.496 -0.37,-14.993 -0.555,-22.489c-0.047,-1.916 -0.095,-3.831 -0.142,-5.747c-0.029,-1.172 -0.415,-3.431 0.642,-4.28c0.504,-0.405 1.422,-0.495 2.047,-0.607c1.042,-0.186 2.098,-0.293 3.154,-0.375c1.416,-0.109 2.798,-0.092 4.212,-0.063c1.968,0.04 3.941,0.019 5.909,-0.027c4.714,-0.109 9.415,-0.023 14.126,0.18c2.075,0.09 4.15,0.196 6.224,0.317c0.889,0.052 1.837,0.022 2.717,0.168c1.715,0.285 1.214,2.987 1.164,4.17c-0.075,1.815 -0.136,3.63 -0.181,5.446c-0.093,3.755 -0.121,7.512 -0.083,11.268c0.037,3.742 0.209,7.477 0.3,11.217c0.01,0.393 0.013,0.786 -0.006,1.178c-0.019,0.401 0.028,1.165 -0.295,1.467c-0.237,0.221 -0.7,0.185 -1.017,0.216c-0.848,0.081 -1.696,0.163 -2.545,0.244c-2.754,0.264 -5.541,-0.064 -8.299,-0.122c-3.207,-0.067 -6.418,0.023 -9.626,0.012c-2.991,-0.011 -5.988,-0.212 -8.976,-0.333c-0.323,-0.012 -0.646,-0.025 -0.968,-0.038c-0.644,-0.026 -0.642,0.974 0,1c2.895,0.117 5.789,0.234 8.684,0.351c2.517,0.102 5.045,-0.018 7.564,-0.002c1.81,0.011 3.616,0.005 5.425,0.085c1.803,0.079 3.636,0.227 5.44,0.121c0.705,-0.041 1.41,-0.135 2.113,-0.202c0.705,-0.068 1.515,-0.056 2.204,-0.24c1.647,-0.441 1.334,-2.918 1.286,-4.206c-0.073,-1.972 -0.151,-3.944 -0.2,-5.917c-0.096,-3.879 -0.123,-7.76 -0.081,-11.639c0.022,-1.981 0.062,-3.962 0.12,-5.943c0.057,-1.945 0.205,-3.897 0.216,-5.843c0.008,-1.364 -0.484,-3.038 -2.059,-3.267c-0.28,-0.041 -0.566,-0.046 -0.848,-0.064c-1.642,-0.105 -3.284,-0.198 -4.927,-0.283c-5.134,-0.265 -10.285,-0.491 -15.427,-0.397c-1.996,0.037 -3.989,0.097 -5.985,0.098c-1.512,0.001 -3.026,-0.108 -4.536,-0.048c-2.058,0.082 -4.22,0.208 -6.213,0.759c-0.865,0.237 -1.496,0.571 -1.896,1.421c-0.665,1.412 -0.404,3.172 -0.366,4.678c0.197,7.996 0.394,15.992 0.592,23.988c0.023,0.916 0.045,1.832 0.068,2.749c0.019,0.773 -0.115,1.759 0.263,2.471c0.429,0.807 1.293,1.011 2.131,1.048c1.705,0.075 3.41,0.15 5.115,0.225c0.439,0.019 0.878,0.039 1.316,0.058c0.644,0.028 0.643,-0.972 0.001,-1.001z" fill="#010101"></path><path d="M41.843,13.233c-0.025,-1.086 -0.051,-2.171 -0.084,-3.257c-0.008,-0.277 -0.222,-0.491 -0.5,-0.5c-8.969,-0.295 -17.93,-0.163 -26.901,-0.157c-2.564,0.002 -5.128,-0.13 -7.691,-0.004c-0.26,0.013 -0.513,0.219 -0.5,0.5c0.335,7.048 0.633,14.099 0.863,21.151c0.078,2.404 0.149,4.807 0.187,7.212c0.002,0.121 0.046,0.212 0.105,0.288c0.078,0.122 0.205,0.212 0.395,0.212c2.609,-0.008 5.218,-0.022 7.827,-0.006c5.575,0.033 11.141,0.59 16.715,0.717c1.598,0.036 3.197,0.06 4.789,-0.109c1.479,-0.157 2.947,-0.401 4.417,-0.62c0.209,-0.031 0.372,-0.283 0.367,-0.482c-0.085,-3.75 0.062,-7.479 0.118,-11.226c0.07,-4.573 -0.003,-9.148 -0.107,-13.719zM32.982,38.404c-1.686,-0.028 -3.37,-0.09 -5.054,-0.166c0.044,-0.381 0.067,-0.763 0.063,-1.15c-0.002,-0.2 -0.079,-0.615 0.006,-0.803c0.093,-0.208 0.488,-0.119 0.698,-0.11c1.176,0.05 2.34,0.181 3.519,0.179c1.149,-0.002 2.295,-0.03 3.436,-0.176c0.219,-0.028 0.55,-0.152 0.762,-0.108c0.33,0.067 0.245,0.475 0.231,0.718c-0.031,0.505 -0.049,1.011 -0.077,1.516c-1.192,0.096 -2.385,0.119 -3.584,0.1zM40.962,26.021c-0.021,2.075 -0.14,4.145 -0.172,6.219c-0.028,1.837 -0.004,3.675 0.035,5.512c-1.081,0.163 -2.161,0.331 -3.246,0.462c0.048,-0.598 0.105,-1.216 0.073,-1.801c-0.031,-0.572 -0.298,-1.204 -0.919,-1.337c-0.308,-0.066 -0.64,0.041 -0.947,0.083c-0.377,0.053 -0.755,0.091 -1.135,0.121c-0.752,0.059 -1.507,0.068 -2.262,0.072c-0.743,0.004 -1.484,-0.015 -2.226,-0.072c-0.705,-0.054 -1.459,-0.185 -2.165,-0.107c-0.583,0.064 -0.941,0.47 -1.002,1.043c-0.07,0.658 0.017,1.315 -0.064,1.972c-1.04,-0.05 -2.08,-0.099 -3.119,-0.157c-4.099,-0.228 -8.177,-0.367 -12.28,-0.361c-1.109,0.002 -2.219,0.004 -3.329,0.007c-0.144,-8.484 -0.539,-16.967 -0.925,-25.442c-0.03,-0.645 -0.059,-1.29 -0.09,-1.935c2.07,-0.075 4.141,-0.008 6.211,0.014c2.223,0.023 4.448,-0.031 6.671,-0.047c4.514,-0.032 9.028,-0.032 13.542,0.032c2.386,0.034 4.771,0.091 7.156,0.166c0.081,2.751 0.137,5.503 0.172,8.255c0.031,2.434 0.046,4.868 0.021,7.301z" fill="#010101"></path><path d="M27.304,18.256c-0.701,-1.543 -2.399,-2.211 -4.004,-1.831c-1.471,0.391 -2.694,1.743 -2.913,3.259c-0.115,0.796 0.061,1.602 0.566,2.238c0.47,0.591 1.171,1.021 1.877,1.271c1.316,0.466 2.874,0.061 3.845,-0.929c1.036,-1.057 1.231,-2.681 0.629,-4.008zM26.203,21.28c-0.557,0.787 -1.622,1.225 -2.573,1.087c-1.066,-0.155 -2.244,-0.979 -2.28,-2.134c-0.04,-1.287 1.003,-2.522 2.216,-2.844c1.002,-0.237 2.1,0.08 2.666,0.98c0.55,0.875 0.576,2.056 -0.029,2.911z" fill="#010101"></path><path d="M36.575,28.655c-0.122,-0.454 -0.411,-0.798 -0.765,-1.092c-0.39,-0.323 -0.799,-0.642 -1.247,-0.881c-0.92,-0.491 -2.109,-0.631 -3.141,-0.601c-0.832,0.024 -1.65,0.259 -2.313,0.752c-0.449,-0.408 -0.944,-0.815 -1.49,-1.068c-0.657,-0.304 -1.383,-0.378 -2.089,-0.502c-1.578,-0.275 -3.477,-0.109 -4.979,0.46c-0.654,0.248 -1.343,0.644 -1.877,1.167c-1.435,-0.608 -3.04,-0.919 -4.564,-0.474c-0.88,0.257 -1.758,0.817 -2.265,1.599c-0.55,0.847 -0.415,1.858 -0.425,2.81c-0.003,0.27 0.231,0.5 0.5,0.5c2.095,-0.002 4.21,-0.134 6.303,0v0c1.257,0.089 2.503,-0.059 3.76,-0.07c1.05,-0.009 2.095,0.112 3.146,0.123c1.55,0.016 3.101,-0.012 4.65,-0.053c1.124,0.005 2.242,0.172 3.367,0.15c0.978,-0.02 1.958,-0.11 2.936,-0.15c0.278,-0.011 0.489,-0.22 0.5,-0.5c0.026,-0.704 0.178,-1.481 -0.007,-2.17zM12.407,30.319c-0.024,-0.603 -0.049,-1.232 0.271,-1.753c0.406,-0.661 1.192,-1.065 1.918,-1.244c1.144,-0.282 2.368,-0.051 3.456,0.381c-0.188,0.341 -0.312,0.713 -0.332,1.118c-0.019,0.495 -0.007,0.99 0.002,1.486c-1.767,-0.08 -3.546,-0.005 -5.315,0.012zM22.069,30.254c-1.119,0.003 -2.23,0.114 -3.347,0.085c-0.009,-0.506 -0.021,-1.013 -0.002,-1.518c0.062,-1.269 1.709,-2.071 2.765,-2.344c1.35,-0.349 2.798,-0.418 4.167,-0.179c0.529,0.092 1.084,0.144 1.574,0.383c0.487,0.238 0.922,0.622 1.318,0.985c0.595,0.547 0.616,1.077 0.641,1.841c0.009,0.276 0.036,0.552 0.058,0.828c-1.372,0.034 -2.744,0.057 -4.116,0.042c-1.021,-0.01 -2.037,-0.126 -3.058,-0.123zM30.243,30.341c-0.031,-0.451 -0.051,-0.903 -0.066,-1.356c-0.018,-0.538 -0.159,-0.988 -0.413,-1.396c0.519,-0.363 1.153,-0.508 1.796,-0.511c0.861,-0.004 1.848,0.092 2.606,0.526c0.59,0.337 1.44,0.839 1.485,1.588c0.023,0.382 -0.009,0.771 -0.039,1.159c-0.823,0.044 -1.646,0.107 -2.468,0.123c-0.969,0.02 -1.934,-0.096 -2.901,-0.133z" fill="#010101"></path><path d="M33.7,20.634c-0.395,-0.337 -0.909,-0.683 -1.422,-0.798c-0.554,-0.123 -1.207,0.003 -1.71,0.257c-0.499,0.252 -0.859,0.758 -1.124,1.236c-0.329,0.594 -0.439,1.282 -0.223,1.936c0.196,0.595 0.597,1.075 1.14,1.384c0.931,0.494 2.183,0.588 3.039,-0.109c0.367,-0.299 0.575,-0.736 0.726,-1.175c0.151,-0.438 0.244,-0.929 0.212,-1.393c-0.037,-0.527 -0.23,-0.991 -0.638,-1.338zM33.233,22.867c-0.078,0.282 -0.16,0.539 -0.329,0.76c-0.201,0.264 -0.54,0.388 -0.836,0.409c-0.413,0.03 -0.838,-0.057 -1.203,-0.251c-0.61,-0.348 -0.937,-1.075 -0.658,-1.753c0.139,-0.337 0.391,-0.74 0.683,-0.967c0.26,-0.203 0.699,-0.301 1.025,-0.278c0.347,0.025 0.68,0.272 0.962,0.468c0.282,0.196 0.418,0.377 0.459,0.679c0.035,0.253 -0.019,0.629 -0.103,0.933z" fill="#010101"></path><path d="M17.626,20.418c-0.474,-0.384 -1.036,-0.65 -1.659,-0.627c-0.629,0.023 -1.236,0.27 -1.712,0.679c-0.796,0.737 -1.058,2.162 -0.577,3.138c0.248,0.503 0.772,0.869 1.229,1.169c0.547,0.36 1.121,0.427 1.75,0.265c0.508,-0.131 1.036,-0.346 1.404,-0.734c0.366,-0.386 0.568,-0.909 0.629,-1.431c0.108,-0.932 -0.346,-1.877 -1.064,-2.459zM17.496,23.396c-0.167,0.293 -0.443,0.465 -0.759,0.576c-0.343,0.121 -0.733,0.25 -1.081,0.084c-0.337,-0.161 -0.691,-0.428 -0.945,-0.703c-0.287,-0.31 -0.29,-0.779 -0.238,-1.177c0.049,-0.374 0.202,-0.734 0.49,-1c0.224,-0.192 0.596,-0.347 0.907,-0.38c0.364,-0.038 0.661,0.068 0.965,0.271c0.24,0.16 0.468,0.403 0.617,0.655c0.151,0.255 0.245,0.548 0.254,0.82c0.01,0.3 -0.054,0.58 -0.21,0.854z" fill="#010101"></path></g></g><g fill="#21f700" fill-rule="nonzero" stroke="none" stroke-width="1" stroke-linecap="butt" stroke-linejoin="miter" stroke-miterlimit="10" stroke-dasharray="" stroke-dashoffset="0" font-family="none" font-weight="none" font-size="none" text-anchor="none" style="mix-blend-mode: normal"><g><path d="M129.085,238.14333v0c0,-1.18 -0.41667,-2.08667 -1.25,-2.72c-0.83333,-0.63333 -2.33333,-1.3 -4.5,-2c-2.16667,-0.7 -3.88333,-1.39 -5.15,-2.07v0c-3.44,-1.86 -5.16,-4.36667 -5.16,-7.52v0c0,-1.64 0.46,-3.10333 1.38,-4.39c0.92667,-1.28667 2.25333,-2.29 3.98,-3.01c1.72667,-0.72 3.66667,-1.08 5.82,-1.08v0c2.16667,0 4.09667,0.39 5.79,1.17c1.7,0.78667 3.01667,1.89667 3.95,3.33c0.94,1.42667 1.41,3.05 1.41,4.87v0h-6.25c0,-1.38667 -0.43667,-2.46667 -1.31,-3.24c-0.88,-0.76667 -2.11,-1.15 -3.69,-1.15v0c-1.52667,0 -2.71333,0.32 -3.56,0.96c-0.84667,0.64667 -1.27,1.5 -1.27,2.56v0c0,0.98667 0.49333,1.81333 1.48,2.48c0.99333,0.66667 2.45667,1.29 4.39,1.87v0c3.55333,1.07333 6.14333,2.4 7.77,3.98c1.62667,1.58667 2.44,3.56 2.44,5.92v0c0,2.62 -0.99333,4.67667 -2.98,6.17c-1.98667,1.49333 -4.66,2.24 -8.02,2.24v0c-2.33333,0 -4.46,-0.42667 -6.38,-1.28c-1.91333,-0.85333 -3.37333,-2.02333 -4.38,-3.51c-1.00667,-1.48667 -1.51,-3.20667 -1.51,-5.16v0h6.27c0,3.34667 2,5.02 6,5.02v0c1.48667,0 2.64667,-0.30333 3.48,-0.91c0.83333,-0.60667 1.25,-1.45 1.25,-2.53zM157.835,228.06333v4.89h-12v8.13h14.08v5.02h-20.33v-30.34h20.29v5.07h-14.04v7.23z"></path></g></g></g></svg>